<svg xmlns="http://www.w3.org/2000/svg" width="64.081" height="66.657" viewBox="0 0 64.081 66.657"><defs><style>.a{fill:#fff;}</style></defs><path class="a" d="M51.1,62.842c-12.327-1.3-5.062-24.457-2.5-22.479,5.333,2.873,5.06-4.043,13.668,4.611,3.475-11.091,1.55-19.97-2.6-17.033C54.5,31.971,49.895,34,50.779,30.933,60.5,2.372,17.473-5.751,14.171,26c-1.895,3.94-8.4-4.068-10.935-3.8-3.378.973-4.058,6.543-2.288,16.26,7.135-7.512,6.74-2.5,12.391-3.393,1.522,25.392,12.392,38.962,38,33.884,4.994-1.212,9.092.35,12.737,3.294C63.7,67.117,59.4,63.987,51.1,62.842Zm-28.344-46.4,7.9,8.5C25.326,27.866,19.651,22.627,22.753,16.443Zm18.337,18.09h0a16.209,16.209,0,0,1-3.041,5.1l-1.123-1.945-2.634,3.2-1.77-3.414-2.687,3.741L28.83,36.739l-2.605,2.9-.963-5.378-2.8,2.638-.191-4.745-1.239,1a40.05,40.05,0,0,1-.327-4.7,13.581,13.581,0,0,0,8.415,7.1,14.666,14.666,0,0,0,2.024.361,19.008,19.008,0,0,0,9.946-1.384Zm-4.318-8.618,10.25-4.64C47.77,28.278,40.709,30.807,36.771,25.915Z" transform="translate(0 -5.587)"/></svg>