<svg xmlns="http://www.w3.org/2000/svg" width="42.891" height="60.962" viewBox="0 0 42.891 60.962"><defs><style>.a{fill:#fff;}.b{fill:#313c8e;}.c{opacity:0.35;}.d{fill:#371a45;}.e{fill:none;stroke:#6b184e;stroke-linecap:round;stroke-miterlimit:10;stroke-width:27.197px;}.f{fill:#327bc4;}.g{opacity:0.7;}.h{fill:#111a28;}.i{fill:#22a7f0;}.j{fill:#f9a528;}.k{fill:#fcd57e;}.l{opacity:0.6;}.m{fill:#377ccc;}.n{opacity:0.5;}.o{fill:#ffce00;}</style></defs><g transform="translate(0 0)"><g transform="translate(0)"><g transform="translate(11.538 22.606)"><rect class="a" width="19.719" height="15.462" rx="7.731"/></g><g transform="translate(11.255 22.324)"><path class="b" d="M1482.911,1442.45h-15.07a2.61,2.61,0,0,1-2.607-2.607v-10.813a2.61,2.61,0,0,1,2.607-2.607h15.07a2.61,2.61,0,0,1,2.607,2.607v10.813A2.61,2.61,0,0,1,1482.911,1442.45Zm-15.07-15.462a2.044,2.044,0,0,0-2.042,2.042v10.813a2.045,2.045,0,0,0,2.042,2.042h15.07a2.045,2.045,0,0,0,2.042-2.042v-10.813a2.045,2.045,0,0,0-2.042-2.042Z" transform="translate(-1465.234 -1426.424)"/></g><g transform="translate(0.305 17.86)"><path class="a" d="M931.849,1198.283c-1.905,2.483-5.881,5.042-10.6,6.985,0,0-.888,9.524-2.368,14.408H904.552c-1.479-4.884-2.367-14.408-2.367-14.408-4.715-1.943-8.691-4.5-10.6-6.985-1.45-1.889-1.183-4.723-.182-5.593,1.221-1.062,3.253.479,3.253.479s.267-.886.847-.983c.9-.152.919,2.139,1.241,2.382a22.585,22.585,0,0,0,4.5,2.744,15.944,15.944,0,0,0,1.675.655,26.022,26.022,0,0,0,5,1.076h7.595a26.348,26.348,0,0,0,4.874-1.033,16.206,16.206,0,0,0,1.8-.7,22.585,22.585,0,0,0,4.5-2.744c.322-.243.345-2.534,1.241-2.382.581.1.847.983.847.983s2.033-1.541,3.254-.479C933.032,1193.56,933.3,1196.394,931.849,1198.283Z" transform="translate(-890.578 -1192.178)"/></g><g class="c" transform="translate(0.305 19.787)"><path class="d" d="M904.572,1318.865c-1.479-4.884-2.367-14.408-2.367-14.408-4.715-1.944-8.691-4.5-10.6-6.985a5.169,5.169,0,0,1-1.01-3.11,3.037,3.037,0,0,0,.859,1.839c1.466,1.091,1.961-3.535,3.386-2.834.132.065-.532.422-.752,1.712a3.869,3.869,0,0,0,.752,3.156c1.141,1.644,4,2.907,6.332,3.931a4.535,4.535,0,0,1,2.682,3.628,80.658,80.658,0,0,0,2.088,11.8Z" transform="translate(-890.598 -1293.293)"/></g><g class="c" transform="translate(27.239 19.787)"><path class="d" d="M2305.4,1318.865c1.479-4.884,2.368-14.408,2.368-14.408,4.715-1.944,8.691-4.5,10.6-6.985a5.163,5.163,0,0,0,1.01-3.11,3.036,3.036,0,0,1-.859,1.839c-1.465,1.091-1.961-3.535-3.386-2.834-.132.065.533.422.752,1.712a3.867,3.867,0,0,1-.752,3.156c-1.141,1.644-4,2.907-6.333,3.931a4.533,4.533,0,0,0-2.681,3.628,80.6,80.6,0,0,1-2.089,11.8Z" transform="translate(-2304.021 -1293.293)"/></g><g transform="translate(0 17.554)"><path class="b" d="M903.2,1204.191a.309.309,0,0,1-.089-.013.3.3,0,0,1-.2-.38c1.454-4.8,2.347-14.253,2.356-14.348l.017-.183.17-.07c4.819-1.987,8.635-4.5,10.471-6.888,1.34-1.747,1.091-4.423.224-5.177-1.019-.887-2.851.478-2.87.492l-.349.264-.127-.419c-.056-.182-.287-.717-.605-.771-.3-.051-.505.854-.616,1.34-.125.547-.2.84-.39.985a21.048,21.048,0,0,1-11.322,4.534l-.037,0h-7.613l-.018,0a21.05,21.05,0,0,1-11.322-4.534c-.191-.146-.265-.438-.39-.985-.11-.486-.316-1.391-.616-1.34s-.536.541-.605.771l-.126.421-.35-.265c-.018-.014-1.85-1.379-2.869-.492-.867.755-1.116,3.43.224,5.177,1.835,2.391,5.651,4.9,10.471,6.888l.17.07.017.183c.009.095.9,9.55,2.356,14.348a.3.3,0,0,1-.584.177c-1.359-4.483-2.229-12.934-2.362-14.285-4.836-2.015-8.676-4.565-10.552-7.01-1.493-1.945-1.322-4.981-.141-6.009,1.089-.948,2.645-.17,3.314.247a1.4,1.4,0,0,1,.936-.823c.868-.148,1.125.982,1.312,1.805a3.729,3.729,0,0,0,.181.648,22.124,22.124,0,0,0,4.424,2.7,22.645,22.645,0,0,0,6.568,1.7h7.557a22.647,22.647,0,0,0,6.568-1.7,22.12,22.12,0,0,0,4.423-2.7,3.736,3.736,0,0,0,.181-.648c.187-.823.444-1.953,1.312-1.805a1.4,1.4,0,0,1,.935.823c.67-.417,2.225-1.195,3.314-.247,1.181,1.028,1.352,4.063-.141,6.009-1.876,2.445-5.716,5-10.552,7.01-.133,1.351-1,9.8-2.362,14.285A.305.305,0,0,1,903.2,1204.191Z" transform="translate(-874.586 -1176.082)"/></g><g transform="translate(25.403 29.456)"><path class="e" d="M2207.657,1800.707" transform="translate(-2207.657 -1800.707)"/></g><g transform="translate(5.882)"><g transform="translate(25.61 11.236)"><path class="a" d="M2530.84,854.292h0a.224.224,0,0,1-.24-.206l-.481-6.425a.224.224,0,0,1,.207-.24h0a2.347,2.347,0,0,1,2.515,2.165l.164,2.191A2.347,2.347,0,0,1,2530.84,854.292Z" transform="translate(-2530.064 -847.359)"/><path class="d" d="M2528,851.535a.279.279,0,0,1-.277-.258l-.481-6.425a.279.279,0,0,1,.257-.3,2.4,2.4,0,0,1,2.574,2.215l.164,2.191a2.4,2.4,0,0,1-2.216,2.574H2528Zm-.319-6.878c-.058,0-.117,0-.175.006a.165.165,0,0,0-.115.058.167.167,0,0,0-.041.123l.482,6.425a.164.164,0,0,0,.058.115.165.165,0,0,0,.122.041h0a2.291,2.291,0,0,0,2.114-2.457l-.164-2.191a2.292,2.292,0,0,0-2.282-2.121Z" transform="translate(-2527.243 -844.547)"/></g><g class="c" transform="translate(26.018 14.626)"><path class="d" d="M2551.115,1022.426l.077,1.027a2.347,2.347,0,0,1-2.165,2.516.225.225,0,0,1-.24-.207l-.128-1.708a.224.224,0,0,0,.213.117l.152-.012A2.346,2.346,0,0,0,2551.115,1022.426Z" transform="translate(-2548.658 -1022.426)"/></g><g transform="translate(25.36 10.986)"><path class="b" d="M2515.128,838.905a.528.528,0,0,1-.526-.489l-.481-6.425a.529.529,0,0,1,.488-.567,2.651,2.651,0,0,1,2.842,2.446l.164,2.191a2.651,2.651,0,0,1-2.446,2.842h-.041Zm-.005-.61h0Zm-.388-6.267.469,6.26a2.042,2.042,0,0,0,1.8-2.181l-.164-2.191a2.041,2.041,0,0,0-2.107-1.888Z" transform="translate(-2514.119 -831.417)"/></g><g transform="translate(2.439 12.831)"><path class="a" d="M1316.3,931.11h0a.224.224,0,0,1,.24.206l.481,6.425a.224.224,0,0,1-.206.24h0a2.347,2.347,0,0,1-2.515-2.165l-.164-2.191A2.346,2.346,0,0,1,1316.3,931.11Z" transform="translate(-1314.072 -931.055)"/><path class="d" d="M1313.817,935.217a2.4,2.4,0,0,1-2.391-2.222l-.164-2.191a2.4,2.4,0,0,1,2.216-2.574h0a.278.278,0,0,1,.3.257l.481,6.425a.279.279,0,0,1-.257.3C1313.939,935.215,1313.878,935.217,1313.817,935.217Zm-.331-6.878a2.294,2.294,0,0,0-2.114,2.457l.164,2.191a2.292,2.292,0,0,0,2.457,2.114.169.169,0,0,0,.156-.181l-.482-6.425a.169.169,0,0,0-.181-.156Z" transform="translate(-1311.255 -928.229)"/></g><g class="c" transform="translate(2.595 16.67)"><path class="d" d="M1322.13,1130.756l.133,1.783a.224.224,0,0,1-.207.24,2.346,2.346,0,0,1-2.515-2.164l-.069-.923a2.348,2.348,0,0,0,2.235,1.215l.234-.018A.226.226,0,0,0,1322.13,1130.756Z" transform="translate(-1319.473 -1129.691)"/></g><g transform="translate(2.188 12.581)"><path class="b" d="M1300.94,922.611a2.652,2.652,0,0,1-2.64-2.453l-.164-2.191a2.655,2.655,0,0,1,2.446-2.842h0a.531.531,0,0,1,.566.488l.482,6.425a.529.529,0,0,1-.488.567C1301.074,922.608,1301.007,922.611,1300.94,922.611Zm-.393-6.871a2.044,2.044,0,0,0-1.8,2.181l.164,2.191a2.041,2.041,0,0,0,2.107,1.888Zm.081-.007h0Z" transform="translate(-1298.128 -915.123)"/></g><g class="c" transform="translate(6.763 23.648)"><path class="d" d="M1555.669,1495.959a10.98,10.98,0,0,1-17.471-.043,26.035,26.035,0,0,0,5,1.075h7.595A26.384,26.384,0,0,0,1555.669,1495.959Z" transform="translate(-1538.198 -1495.916)"/></g><g transform="translate(0)"><circle class="a" cx="10.979" cy="10.979" r="10.979" transform="translate(0 15.527) rotate(-45)"/><path class="d" d="M1430.1,512.76a11.034,11.034,0,0,1-.041-22.068h.043a11.034,11.034,0,0,1,.041,22.068Zm0-21.959h-.043a10.924,10.924,0,0,0,.041,21.849h.042a10.925,10.925,0,0,0-.04-21.849Z" transform="translate(-1414.572 -486.199)"/></g><g class="c" transform="translate(4.547 13.966)"><path class="d" d="M1443.764,987.817a10.862,10.862,0,0,1,.111,1.52,10.98,10.98,0,0,1-21.959.083c0-.174,0-.349.01-.521a10.98,10.98,0,0,0,21.838-1.082Z" transform="translate(-1421.916 -987.817)"/></g><g transform="translate(4.243 4.243)"><path class="b" d="M1417.223,500.135a11.284,11.284,0,0,1-.042-22.568h.044a11.284,11.284,0,0,1,.041,22.568Zm0-21.959h-.042a10.674,10.674,0,0,0,.04,21.349h.041a10.674,10.674,0,0,0-.039-21.349Z" transform="translate(-1405.939 -477.567)"/></g><g transform="translate(4.652 7.929)"><path class="f" d="M1449.245,678.827a9.849,9.849,0,0,1-1.781,5.828c-.871,1.254-4.505,3.489-9.043,3.615-4.207.117-8.078-2.054-9-3.274a9.851,9.851,0,0,1-2-5.757c-.107-5.684,4.732-8.133,10.757-8.247S1449.137,673.142,1449.245,678.827Z" transform="translate(-1427.425 -670.988)"/></g><g transform="translate(4.347 7.624)"><path class="b" d="M1422.388,672.877c-4.226,0-7.964-2.15-8.9-3.4a10.141,10.141,0,0,1-2.06-5.934,7.22,7.22,0,0,1,3.211-6.47,16.99,16.99,0,0,1,15.763-.3,7.221,7.221,0,0,1,3.453,6.344h0a10.143,10.143,0,0,1-1.835,6.008c-.861,1.24-4.468,3.612-9.285,3.746C1422.617,672.875,1422.5,672.877,1422.388,672.877Zm.489-17.286q-.2,0-.386,0c-3.188.06-10.59.954-10.458,7.937a9.541,9.541,0,0,0,1.938,5.579c.873,1.161,4.647,3.269,8.744,3.152,4.542-.127,8.026-2.368,8.8-3.484a9.539,9.539,0,0,0,1.726-5.649h0C1433.115,656.416,1426.24,655.591,1422.877,655.591Z" transform="translate(-1411.422 -654.98)"/></g><g class="g" transform="translate(21.212 12.919)"><ellipse class="a" cx="1.943" cy="1.408" rx="1.943" ry="1.408" transform="translate(0 3.836) rotate(-80.812)"/></g><g class="g" transform="translate(20.266 17.865)"><ellipse class="a" cx="0.892" cy="0.765" rx="0.892" ry="0.765" transform="translate(0 1.705) rotate(-72.87)"/></g><g class="c" transform="translate(11.134 10.505)"><path class="h" d="M1780.664,806.166a7.023,7.023,0,0,1,2.222,5.263,9.851,9.851,0,0,1-1.78,5.828c-.871,1.254-4.506,3.489-9.043,3.615a13.536,13.536,0,0,1-4.515-.683c5.574-.275,10-3.017,11.081-4.572a12.5,12.5,0,0,0,2.26-7.4A11.116,11.116,0,0,0,1780.664,806.166Z" transform="translate(-1767.548 -806.166)"/></g><g transform="translate(5.08 6.483)"><path class="b" d="M1450.155,600.278a.3.3,0,0,1-.249-.48c1.878-2.871,5.59-4.567,10.187-4.654,4.564-.084,8.335,1.414,10.35,4.117a.3.3,0,0,1-.414.442l-.036-.025-.029-.039c-1.893-2.551-5.486-3.965-9.859-3.885-4.4.083-7.93,1.682-9.693,4.386l-.022.03A.306.306,0,0,1,1450.155,600.278Z" transform="translate(-1449.851 -595.141)"/></g><g class="g" transform="translate(6.591 9.45)"><path class="a" d="M1529.724,760.868s-1.866-5.574,1.114-7.866,7.328-2.365,7.232-2.084c0,0-4.792,1.256-6.6,5.1A21.969,21.969,0,0,0,1529.724,760.868Z" transform="translate(-1529.147 -750.802)"/></g></g><g transform="translate(10.783 29.539)"><g transform="translate(0.305 2.632)"><path class="a" d="M1462.03,1945.87a9.951,9.951,0,0,1-4.365.233,1.373,1.373,0,0,1-1.192-1.564h0a1.372,1.372,0,0,1,1.42-1.171,18.411,18.411,0,0,0,4.125-.17" transform="translate(-1456.458 -1943.198)"/></g><g class="c" transform="translate(0.305 3.538)"><path class="d" d="M1462.044,1992.49a9.958,9.958,0,0,1-4.365.234,1.373,1.373,0,0,1-1.192-1.564,1.356,1.356,0,0,1,.141-.435,1.371,1.371,0,0,0,1.051.726,9.969,9.969,0,0,0,4.36-.231Z" transform="translate(-1456.472 -1990.724)"/></g><g transform="translate(0 2.323)"><path class="d" d="M1443.914,1930.6a16.856,16.856,0,0,1-1.994-.13,1.678,1.678,0,0,1,.28-3.343,17.943,17.943,0,0,0,4.045-.163c.165-.037.575-.037.819.749.25.806.225,2.159-.627,2.5A6.987,6.987,0,0,1,1443.914,1930.6Zm-1.793-2.865a1.069,1.069,0,0,0-.127,2.13,9.342,9.342,0,0,0,4.214-.213c.28-.114.354-.567.372-.757a2.154,2.154,0,0,0-.251-1.325,18.792,18.792,0,0,1-4.157.166Z" transform="translate(-1440.445 -1926.952)"/></g><g transform="translate(15.146 2.632)"><path class="a" d="M2235.245,1945.87a9.953,9.953,0,0,0,4.365.233,1.373,1.373,0,0,0,1.193-1.564h0a1.374,1.374,0,0,0-1.421-1.171,18.413,18.413,0,0,1-4.125-.17" transform="translate(-2235.245 -1943.198)"/></g><g class="c" transform="translate(15.145 3.531)"><path class="d" d="M2239.584,1992.394a9.954,9.954,0,0,1-4.365-.234l.005-1.282a9.968,9.968,0,0,0,4.36.231,1.365,1.365,0,0,0,1.047-.721,1.372,1.372,0,0,1-1.047,2.006Z" transform="translate(-2235.219 -1990.388)"/></g><g transform="translate(14.266 2.323)"><path class="d" d="M2192.358,1930.6a6.981,6.981,0,0,1-2.522-.383h0c-.852-.345-.878-1.7-.628-2.5.245-.786.655-.785.819-.749a17.962,17.962,0,0,0,4.045.163,1.679,1.679,0,0,1,.28,3.343A16.914,16.914,0,0,1,2192.358,1930.6Zm-2.415-3.03a2.152,2.152,0,0,0-.252,1.324c.019.19.092.643.372.757a9.327,9.327,0,0,0,4.214.213,1.067,1.067,0,0,0,.927-1.217,1.067,1.067,0,0,0-1.105-.911A18.821,18.821,0,0,1,2189.943,1927.571Z" transform="translate(-2189.069 -1926.953)"/></g><g transform="translate(4.839 0.305)"><path class="a" d="M1705.144,1822.533v4.282a1.449,1.449,0,0,1-1.445,1.445h-7.886a1.449,1.449,0,0,1-1.444-1.445v-4.282a1.448,1.448,0,0,1,1.444-1.444h7.886a1.447,1.447,0,0,1,1.15.572A1.431,1.431,0,0,1,1705.144,1822.533Z" transform="translate(-1694.369 -1821.089)"/></g><g class="c" transform="translate(4.839 0.878)"><path class="d" d="M1705.144,1852v4.282a1.449,1.449,0,0,1-1.445,1.445h-7.886a1.449,1.449,0,0,1-1.444-1.445v-1.6c1.646,1.222,5.237,2.069,7.482.241a10.076,10.076,0,0,0,3-3.793A1.43,1.43,0,0,1,1705.144,1852Z" transform="translate(-1694.369 -1851.125)"/></g><g transform="translate(4.534)"><path class="d" d="M1688.007,1812.853h-7.887a1.751,1.751,0,0,1-1.749-1.749v-4.283a1.751,1.751,0,0,1,1.749-1.749h7.887a1.751,1.751,0,0,1,1.749,1.749v4.283A1.751,1.751,0,0,1,1688.007,1812.853Zm-7.887-7.171a1.14,1.14,0,0,0-1.139,1.139v4.283a1.14,1.14,0,0,0,1.139,1.139h7.887a1.14,1.14,0,0,0,1.139-1.139v-4.283a1.14,1.14,0,0,0-1.139-1.139Z" transform="translate(-1678.371 -1805.072)"/></g><g transform="translate(11.775 2.645)"><circle class="i" cx="1.245" cy="1.245" r="1.245"/></g><g class="c" transform="translate(11.775 3.439)"><path class="d" d="M2060.844,1986.018a1.245,1.245,0,0,1-2.49,0,1.226,1.226,0,0,1,.085-.451,1.244,1.244,0,0,0,2.32,0A1.231,1.231,0,0,1,2060.844,1986.018Z" transform="translate(-2058.354 -1985.567)"/></g><g transform="translate(11.546 2.416)"><path class="d" d="M2047.826,1934.821a1.474,1.474,0,1,1,1.474-1.474A1.475,1.475,0,0,1,2047.826,1934.821Zm0-2.491a1.017,1.017,0,1,0,1.016,1.017A1.018,1.018,0,0,0,2047.826,1932.33Z" transform="translate(-2046.352 -1931.873)"/></g><g transform="translate(7.685 0.076)"><path class="d" d="M1845.536,1816.7a.229.229,0,0,1-.229-.229v-2.94l-1.577-1.187V1809.3a.229.229,0,1,1,.457,0v2.816l1.577,1.187v3.168A.229.229,0,0,1,1845.536,1816.7Z" transform="translate(-1843.73 -1809.07)"/></g></g><g transform="translate(3.567 19.781)"><path class="d" d="M1062.073,1295.528a1.338,1.338,0,0,1-.268-.69,1.845,1.845,0,0,1,.071-.732l.062-.172a1.8,1.8,0,0,1,.077-.164,2.094,2.094,0,0,1,.189-.3,3.177,3.177,0,0,1,.232-.265,3.03,3.03,0,0,1,.273-.219.1.1,0,0,1,.132.024.094.094,0,0,1,.009.091l0,.009c-.045.1-.1.2-.149.292s-.1.189-.137.283-.087.186-.118.281-.066.188-.1.282a2.812,2.812,0,0,0-.1.575l0,.073c0,.025,0,.049,0,.073a1.435,1.435,0,0,0,0,.148c0,.1.021.2.032.294l0,.027a.121.121,0,0,1-.214.092Z" transform="translate(-1061.795 -1292.966)"/></g><g transform="translate(38.261 19.781)"><path class="d" d="M2882.99,1295.415c.012-.09.028-.2.033-.294a1.37,1.37,0,0,0,0-.148c0-.025,0-.049,0-.073l0-.074a2.848,2.848,0,0,0-.1-.575c-.03-.094-.056-.189-.1-.282s-.079-.186-.118-.281-.093-.186-.137-.283-.1-.188-.149-.292l0-.008a.1.1,0,0,1,.049-.125.1.1,0,0,1,.092.009,2.965,2.965,0,0,1,.272.219,3.1,3.1,0,0,1,.232.265,2,2,0,0,1,.189.3c.027.054.056.107.078.164l.061.172a1.84,1.84,0,0,1,.071.731,1.341,1.341,0,0,1-.269.689.12.12,0,0,1-.169.02.118.118,0,0,1-.044-.11Z" transform="translate(-2882.417 -1292.971)"/></g><g transform="translate(6.642 22.378)"><path class="b" d="M1223.363,1435.564a.229.229,0,0,1-.127-.419c2.839-1.887,3.193-5.656,3.2-5.694a.229.229,0,0,1,.456.039c-.014.163-.373,4.025-3.4,6.036A.229.229,0,0,1,1223.363,1435.564Z" transform="translate(-1223.134 -1429.242)"/></g><g transform="translate(32.541 22.378)"><path class="b" d="M2585.808,1435.568a.23.23,0,0,1-.126-.038c-3.026-2.011-3.385-5.873-3.4-6.036a.228.228,0,0,1,.455-.039c0,.038.358,3.807,3.2,5.694a.229.229,0,0,1-.127.419Z" transform="translate(-2582.282 -1429.246)"/></g></g><g transform="translate(28.996 35.462)"><path class="j" d="M2396.212,2115.869" transform="translate(-2396.212 -2115.869)"/></g><g transform="translate(8.765 31.234)"><path class="k" d="M1335.488,1899.89c-1.8-1.3-.61-2.638.36-2.005-.117-.22.228-.49.474-.371-.119-1.324,1.245-1.869,1.957-.9-.192-.262.491-.824.965-.461.413-2.219,3.444-2.606,4.715-.909,0-.345.875-.341.878.011-.007-.752,1.818-1.309,2.367.188.161-.223.322-.69.945-.686.581,0,1.1.317.979.627.725-1.884,4.306-1.884,4.98.161-.051-.155.543-.324.816-.247a.488.488,0,0,1,.171.843c3.073-.947,1.8,1.259,1.8,1.259a2.453,2.453,0,0,1,.79.265c.123.125.019.364.019.364s2.289-.385.664,2.32c-8.685,14.452-24.164.634-22.759-.4" transform="translate(-1334.556 -1893.991)"/></g><g class="l" transform="translate(8.765 31.234)"><g transform="translate(0)"><path class="a" d="M1355.089,1896.921a.488.488,0,0,0-.171-.843c-.272-.077-.866.092-.816.247-.674-2.045-4.254-2.045-4.979-.162.12-.31-.4-.623-.978-.626-.623,0-.784.463-.945.686-.548-1.5-2.368-.942-2.368-.192-.009-.348-.873-.351-.877-.008-1.271-1.7-4.3-1.309-4.715.909-.474-.363-1.157.2-.965.462-.711-.97-2.075-.425-1.957.9-.246-.12-.59.15-.474.37a.812.812,0,0,0-1.2.246.81.81,0,0,1,1.209-1.027c-.116-.221.228-.49.474-.371-.118-1.324,1.245-1.87,1.957-.9-.192-.262.491-.824.965-.461.413-2.219,3.444-2.606,4.715-.909.005-.345.875-.341.878.011-.007-.753,1.818-1.31,2.367.188.161-.223.322-.69.945-.687.582,0,1.1.317.979.627.725-1.884,4.306-1.884,4.979.161-.051-.155.544-.324.815-.246a.488.488,0,0,1,.171.843c2.207-.68,2.171.266,1.977.853C1356.9,1896.679,1356.373,1896.525,1355.089,1896.921Z" transform="translate(-1334.56 -1893.989)"/></g></g><g transform="translate(31.094 34.697)"><path class="a" d="M2508.3,2077.521c-.25-.592-1.186-.435-1.186-.435s.1-.238-.019-.363a2.445,2.445,0,0,0-.791-.266,2.239,2.239,0,0,0,.254-.728,1.5,1.5,0,0,1,.545.211c.123.126.018.365.018.365S2508.721,2076.037,2508.3,2077.521Z" transform="translate(-2506.308 -2075.729)"/></g><g transform="translate(31.102 34.237)"><path class="a" d="M2506.986,2052.071c-.136-.034-.245-.054-.245-.054a2.5,2.5,0,0,0,.177-.406A.743.743,0,0,1,2506.986,2052.071Z" transform="translate(-2506.741 -2051.612)"/></g><g transform="translate(8.458 30.929)"><path class="d" d="M1332.291,1891.493a12.62,12.62,0,0,1-1.872-.142c-5.585-.836-10.584-5.137-10.974-6.706a.8.8,0,0,1-.023-.286c-1.026-.782-1.107-1.592-.831-2.1a1.084,1.084,0,0,1,1.25-.513.712.712,0,0,1,.38-.254,1.486,1.486,0,0,1,.837-1.273,1.311,1.311,0,0,1,1.291.128,1.041,1.041,0,0,1,.892-.318,2.689,2.689,0,0,1,1.983-1.769,3.137,3.137,0,0,1,2.942.806,1.03,1.03,0,0,1,.757-.044,1.627,1.627,0,0,1,2.519.122,1.141,1.141,0,0,1,.914-.4,1.719,1.719,0,0,1,.986.3,3.116,3.116,0,0,1,2.692-1.054,2.865,2.865,0,0,1,2.4,1.372,1.418,1.418,0,0,1,.775-.062.793.793,0,0,1,.566.692c.841-.185,1.394-.1,1.688.245a1.222,1.222,0,0,1,.066,1.245,1.192,1.192,0,0,1,.575.265.505.505,0,0,1,.134.254,1.212,1.212,0,0,1,1.076.525c.3.5.137,1.242-.484,2.275C1339.634,1890.12,1335.6,1891.493,1332.291,1891.493Zm-12.265-7.039c0,.63,3.109,3.948,7.7,5.586,4.224,1.506,10.181,1.764,14.58-5.557.663-1.1.558-1.521.482-1.65-.132-.222-.52-.231-.681-.225a.454.454,0,0,1-.341-.135.448.448,0,0,1-.127-.314,2.3,2.3,0,0,0-.431-.131.45.45,0,0,1-.309-.625c.16-.35.2-.656.1-.778-.052-.062-.3-.248-1.278,0a.449.449,0,0,1-.552-.526.188.188,0,0,0-.123-.22.907.907,0,0,0-.474.079.454.454,0,0,1-.356.028.448.448,0,0,1-.262-.237,2.226,2.226,0,0,0-1.96-1.158,2.438,2.438,0,0,0-2.239.92.464.464,0,0,1-.355.212.44.44,0,0,1-.368-.151,1,1,0,0,0-.679-.222.573.573,0,0,0-.543.321.458.458,0,0,1-.4.205.445.445,0,0,1-.376-.235.981.981,0,0,0-.885-.548.931.931,0,0,0-.774.346.445.445,0,0,1-.277.217.455.455,0,0,1-.34-.043.428.428,0,0,0-.323,0,.452.452,0,0,1-.633-.042,2.507,2.507,0,0,0-2.439-.718,2.053,2.053,0,0,0-1.579,1.481.451.451,0,0,1-.593.309.42.42,0,0,0-.432.161.452.452,0,0,1-.318.211.446.446,0,0,1-.36-.106.712.712,0,0,0-.774-.135.9.9,0,0,0-.483.859.448.448,0,0,1-.43.444.107.107,0,0,0-.067.037.445.445,0,0,1-.574.244.486.486,0,0,0-.627.194c-.152.278-.048.806.745,1.378l.008.006a.305.305,0,0,1,.147.515Zm.341-2.982h0Zm7.671-2.316h0Z" transform="translate(-1318.455 -1877.977)"/></g><g transform="translate(8.761 39.279)"><path class="m" d="M1338.825,2336.985q-1.144-.157-2.285-.362l-.355-3.273-1.868-17.194h2.893l.119,1.531,1.307,16.858,0,.063Z" transform="translate(-1334.318 -2316.156)"/></g><g transform="translate(11.653 39.279)"><path class="a" d="M1490.945,2337.339q-1.61-.133-3.212-.354l-.185-2.376,0-.063-1.307-16.858-.119-1.531h3.841l.071,1.531.814,17.458,0,.063Z" transform="translate(-1486.118 -2316.156)"/></g><g transform="translate(15.494 39.279)"><path class="m" d="M1691.851,2337.513q-1.6-.044-3.187-.174l-.1-2.13,0-.063-.813-17.458-.071-1.531h3.842l.024,1.531.268,17.273v.11Z" transform="translate(-1687.678 -2316.156)"/></g><g transform="translate(19.336 39.279)"><path class="a" d="M1893.119,2316.156l-.024,1.531-.256,16.5v.105l-.051,3.217q-1.589.044-3.178,0l-.038-2.442v-.11l-.268-17.273-.024-1.531Z" transform="translate(-1889.277 -2316.156)"/></g><g transform="translate(22.846 39.279)"><path class="m" d="M2077.65,2316.156l-.071,1.531-.681,14.628v0l-.234,5.02q-1.592.131-3.187.174l.051-3.217v-.105l.256-16.5.024-1.531Z" transform="translate(-2073.477 -2316.156)"/></g><g transform="translate(26.033 39.279)"><path class="a" d="M2245.545,2316.156l-.118,1.531-.8,10.354-.029.373-.665,8.568q-1.6.223-3.212.355l.233-5.02v0l.681-14.628.072-1.531Z" transform="translate(-2240.718 -2316.156)"/></g><g transform="translate(29.245 39.279)"><path class="m" d="M2413.784,2316.156l-.583,5.37-1.638,15.1-.574.1q-.854.144-1.712.263l.665-8.568.029-.373.8-10.354.118-1.531Z" transform="translate(-2409.277 -2316.156)"/></g><g transform="translate(8.39 38.693)"><path class="d" d="M1327.74,2307.7c-.529,0-1.059-.008-1.587-.022-1.066-.029-2.144-.088-3.2-.174-1.082-.09-2.169-.209-3.229-.356-.754-.1-1.527-.226-2.3-.364l-.225-.041-2.314-21.313h25.732l-2.314,21.315-.8.135c-.569.1-1.148.185-1.721.265-1.067.148-2.153.267-3.229.356-1.056.087-2.134.146-3.2.176C1328.816,2307.695,1328.279,2307.7,1327.74,2307.7Zm-9.985-1.477c.688.12,1.375.228,2.049.321,1.049.145,2.124.264,3.2.352,1.048.086,2.115.144,3.17.173s2.117.029,3.162,0,2.125-.088,3.17-.173c1.065-.088,2.14-.207,3.2-.353.567-.079,1.14-.167,1.7-.261l.346-.058,2.191-20.182h-24.373Z" transform="translate(-1314.885 -2285.433)"/></g><g transform="translate(14.219 33.655)"><path class="k" d="M1620.8,2022.872a.979.979,0,0,1,.284-.935c.578-.405,1.034.478,1.124.467s.208-1.361,1.523-1.339a1.164,1.164,0,0,1,1.187,1.565" transform="translate(-1620.776 -2021.066)"/></g><g class="l" transform="translate(14.219 33.655)"><path class="a" d="M1624.575,2021.323a.263.263,0,0,1-.273.444,1.6,1.6,0,0,0-.577-.106,1.379,1.379,0,0,0-1.373.961.263.263,0,0,1-.229.166h0a.262.262,0,0,1-.2-.076c-.205-.209-.5-.417-.844-.179a.665.665,0,0,0-.246.33l-.038,0a.978.978,0,0,1,.284-.935c.578-.4,1.034.478,1.123.467s.207-1.361,1.523-1.339A1.352,1.352,0,0,1,1624.575,2021.323Z" transform="translate(-1620.774 -2021.058)"/></g><g transform="translate(24.528 33.655)"><path class="k" d="M2165.945,2022.872a.978.978,0,0,0-.283-.935c-.579-.405-1.034.478-1.124.467s-.207-1.361-1.522-1.339a1.164,1.164,0,0,0-1.187,1.565" transform="translate(-2161.774 -2021.066)"/></g><g class="l" transform="translate(24.735 33.655)"><path class="a" d="M2176.594,2022.865l-.03,0a.682.682,0,0,0-.253-.351c-.353-.247-.661-.014-.867.2a.235.235,0,0,1-.183.073h-.008a.231.231,0,0,1-.2-.148,1.391,1.391,0,0,0-1.388-1,1.474,1.474,0,0,0-.693.162.231.231,0,0,1-.287-.351,1.243,1.243,0,0,1,.98-.393c1.315-.022,1.434,1.329,1.523,1.339s.546-.872,1.124-.468A.982.982,0,0,1,2176.594,2022.865Z" transform="translate(-2172.629 -2021.058)"/></g><g transform="translate(13.991 33.427)"><path class="d" d="M1609.043,2011.325a.229.229,0,0,1-.223-.181,1.2,1.2,0,0,1,.376-1.17.861.861,0,0,1,1.174.242,1.611,1.611,0,0,1,1.571-1.156h.037a1.427,1.427,0,0,1,1.206.545,1.548,1.548,0,0,1,.2,1.315.229.229,0,0,1-.437-.133,1.106,1.106,0,0,0-.128-.913,1,1,0,0,0-.844-.357h-.027a1.252,1.252,0,0,0-1.208,1.034c-.049.146-.1.285-.258.3-.143.017-.225-.079-.329-.2-.317-.369-.491-.446-.69-.307-.288.2-.192.695-.191.7a.228.228,0,0,1-.176.271A.243.243,0,0,1,1609.043,2011.325Z" transform="translate(-1608.794 -2009.061)"/></g><g transform="translate(24.223 33.35)"><path class="d" d="M2150.229,2007.479a.305.305,0,0,1-.3-.367c0-.01.081-.453-.16-.623-.139-.1-.268-.079-.589.294-.109.127-.212.248-.4.226-.21-.024-.271-.207-.322-.354-.174-.518-.435-.991-1.161-.983a.93.93,0,0,0-.784.325,1.024,1.024,0,0,0-.116.846.3.3,0,0,1-.583.178,1.628,1.628,0,0,1,.206-1.383,1.5,1.5,0,0,1,1.266-.576h.038a1.669,1.669,0,0,1,1.6,1.1.89.89,0,0,1,1.189-.172,1.235,1.235,0,0,1,.407,1.248A.305.305,0,0,1,2150.229,2007.479Z" transform="translate(-2145.751 -2005.062)"/></g><g class="c" transform="translate(10.628 44.649)"><path class="d" d="M1454.859,2598l-1.639,15.1-.573.1q-.854.144-1.712.263-1.6.222-3.212.355-1.592.131-3.187.174t-3.178,0q-1.6-.044-3.187-.174-1.61-.133-3.212-.354-1.144-.158-2.285-.362l-.355-3.272a11.587,11.587,0,0,0,2.451,1.2c.184.065.371.125.563.181a12.656,12.656,0,0,0,2.739.481c.109.008.219.014.33.019a15.768,15.768,0,0,0,2.918-.156l.11-.016a20.288,20.288,0,0,0,2.509-.548c.182-.052.361-.108.537-.17l.111-.041a11.016,11.016,0,0,0,3.029-1.7c.115-.089.229-.182.342-.275a17.84,17.84,0,0,0,3.052-3.361q.322-.45.621-.914A35.132,35.132,0,0,0,1454.859,2598Z" transform="translate(-1432.318 -2597.996)"/></g><g class="n" transform="translate(10.869 41.697)"><ellipse class="a" cx="2.032" cy="6.406" rx="2.032" ry="6.406" transform="translate(0 0.162) rotate(-2.285)"/></g><g class="c" transform="translate(8.731 38.998)"><path class="d" d="M1357.806,2301.455l-.155,1.427h-24.743l-.155-1.427Z" transform="translate(-1332.754 -2301.455)"/></g><g transform="translate(6.557 36.378)"><rect class="o" width="29.398" height="2.621" rx="1.31" transform="translate(0 0)"/></g><g class="c" transform="translate(6.558 37.088)"><path class="d" d="M1248.107,2201.53v.546a1.037,1.037,0,0,1-1.037,1.037h-27.324a1.037,1.037,0,0,1-1.037-1.037v-.546a1.033,1.033,0,0,1,.053-.328,1.036,1.036,0,0,0,.984.711h27.324a1.036,1.036,0,0,0,.984-.711A1.026,1.026,0,0,1,1248.107,2201.53Z" transform="translate(-1218.709 -2201.202)"/></g><g transform="translate(6.252 36.073)"><path class="d" d="M1231.363,2151.173h-27.324a1.344,1.344,0,0,1-1.342-1.342v-.546a1.344,1.344,0,0,1,1.342-1.343h27.324a1.344,1.344,0,0,1,1.342,1.343v.546A1.344,1.344,0,0,1,1231.363,2151.173Zm-27.324-2.621a.733.733,0,0,0-.732.733v.546a.733.733,0,0,0,.732.733h27.324a.734.734,0,0,0,.733-.733v-.546a.733.733,0,0,0-.733-.733Z" transform="translate(-1202.697 -2147.943)"/></g></g></svg>