<svg xmlns="http://www.w3.org/2000/svg" width="82.273" height="70.012" viewBox="0 0 82.273 70.012"><defs><style>.a{fill:#fff;}</style></defs><path class="a" d="M46.675,229.44a12.482,12.482,0,0,0-12.668-12.286,12.757,12.757,0,0,0-10.666,5.654,12.757,12.757,0,0,0-10.666-5.654A12.482,12.482,0,0,0,.007,229.44s-1.059,13.417,23.334,28.774C47.734,242.857,46.675,229.44,46.675,229.44Z" transform="translate(0 -188.202)"/><path class="a" d="M170.813,48.568a17.465,17.465,0,0,0-17.727-17.192,17.85,17.85,0,0,0-14.924,7.911,17.85,17.85,0,0,0-14.924-7.911,17.465,17.465,0,0,0-17.727,17.192s-.241,3.055,1.712,8.11a17.535,17.535,0,0,1,4.667,2.485,17.914,17.914,0,0,1,23.033,1.458,16.6,16.6,0,0,1,5.122,11.865c.051,1.183-.049,5.2-3.049,10.887a37.518,37.518,0,0,1-2.03,3.383q1.544,1.032,3.2,2.073c34.132-21.488,32.65-40.262,32.65-40.262Z" transform="translate(-88.549 -31.376)"/></svg>