<svg xmlns="http://www.w3.org/2000/svg" width="24.331" height="15.899" viewBox="0 0 24.331 15.899"><defs><style>.a{fill:#cfd3d9;}</style></defs><g transform="translate(0 -161.525)"><path class="a" d="M12.165,161.525A13.358,13.358,0,0,0,.049,169.254a.521.521,0,0,0,0,.441,13.362,13.362,0,0,0,24.233,0,.521.521,0,0,0,0-.441A13.358,13.358,0,0,0,12.165,161.525Zm0,13.435a5.484,5.484,0,1,1,5.484-5.484A5.484,5.484,0,0,1,12.165,174.96Z"/><circle class="a" cx="3.511" cy="3.511" r="3.511" transform="translate(8.655 165.962)"/></g></svg>