<svg xmlns="http://www.w3.org/2000/svg" width="58.588" height="71.546" viewBox="0 0 58.588 71.546"><defs><style>.a{fill:#fff;}</style></defs><g transform="translate(0 14.215)"><path class="a" d="M43.068,294.653l-14.19,15.5a7.491,7.491,0,0,0,0,9.922,6.052,6.052,0,0,0,9.083,0l14.19-15.5Zm-9.645,22.554a2.1,2.1,0,1,1,1.919-2.1A2.013,2.013,0,0,1,33.423,317.207Z" transform="translate(-27 -267.694)"/><path class="a" d="M196.912,111.262a23.349,23.349,0,0,1-.715-9.532l-21.9,23.928,14.073,15.373a1.806,1.806,0,0,0,2.714,0l7.428-8.114v-9.252q0-.153.007-.3A37.518,37.518,0,0,0,196.912,111.262Z" transform="translate(-155.451 -101.73)"/><path class="a" d="M397.484,431.491l-2.077-3.53a1.835,1.835,0,0,0-3.228,0l-2.077,3.53a5.172,5.172,0,0,0-.16,4.889,4.219,4.219,0,0,0,7.7,0A5.173,5.173,0,0,0,397.484,431.491Z" transform="translate(-343.045 -381.547)"/></g><path class="a" d="M386,1.319a1.847,1.847,0,0,0-3.138-.7L375.59,8.557l-.143.469c-1.583,5.183-1.812,9.69-.681,13.4a42.243,42.243,0,0,1,1.794,13.627l0,13.045a3.869,3.869,0,1,0,7.707,0V30.888A37.343,37.343,0,0,0,386,1.319Z" transform="translate(-329.663 0)"/></svg>