<svg xmlns="http://www.w3.org/2000/svg" width="21.999" height="22" viewBox="0 0 21.999 22"><defs><style>.a{fill:#fff;}</style></defs><g transform="translate(0 0)"><g transform="translate(0 0)"><path class="a" d="M40.049,37.247l-3.927-3.918a.42.42,0,0,0-.064-.048,9.527,9.527,0,0,1-1.251,1.534,9.359,9.359,0,0,1-1.54,1.252c.019.02.034.044.054.063l3.919,3.926a1.987,1.987,0,0,0,2.809-2.81Z" transform="translate(-18.63 -18.638)"/><path class="a" d="M15.618,2.675a9.152,9.152,0,1,0,0,12.943A9.16,9.16,0,0,0,15.618,2.675ZM4.358,13.938a6.774,6.774,0,1,1,9.58,0A6.782,6.782,0,0,1,4.358,13.938Z" transform="translate(0 0)"/><path class="a" d="M11.6,20.4c-.194-.8-.993-1.9-1.665-1.551-.533.272-.383,1.519-.132,2.256,1.123,3.353,5.206,4.062,5.631,3.638S12.371,23.559,11.6,20.4Z" transform="translate(-5.363 -10.52)"/></g></g></svg>