<svg xmlns="http://www.w3.org/2000/svg" width="55.742" height="53.418" viewBox="0 0 55.742 53.418"><defs><style>.a{fill:#ffc107;}</style></defs><path class="a" d="M55.6,20.678a2.957,2.957,0,0,0-2.55-2.037L36.957,17.18,30.6,2.29a2.962,2.962,0,0,0-5.449,0L18.785,17.18,2.694,18.641a2.966,2.966,0,0,0-1.682,5.184L13.173,34.491l-3.586,15.8a2.958,2.958,0,0,0,4.406,3.2l13.878-8.294,13.873,8.294a2.962,2.962,0,0,0,4.409-3.2l-3.586-15.8L54.727,23.828A2.964,2.964,0,0,0,55.6,20.678Zm0,0" transform="translate(0 -0.492)"/></svg>