<svg xmlns="http://www.w3.org/2000/svg" width="91.508" height="69.434" viewBox="0 0 91.508 69.434"><defs><style>.a{fill:#fff;}</style></defs><path class="a" d="M235.215,5.559V7.344a23.219,23.219,0,0,1,4.4.056,2.713,2.713,0,0,1,2.032,1.376l3.883,7.416a2.826,2.826,0,0,1,1.287.629,3.767,3.767,0,0,0,1.664.868,3.906,3.906,0,0,0,3.417-.814,3.013,3.013,0,0,1,3.4-.39,2.306,2.306,0,0,1,.5,3.819,9.559,9.559,0,0,1-6.41,2.38q-.234,0-.466-.011l5.22,9.971q.331.631.628,1.269A18.6,18.6,0,0,1,272,37.624a2.312,2.312,0,0,1,.184,3.418,2.954,2.954,0,0,1-3.976.107,12.666,12.666,0,0,0-11.719-2.593,29.205,29.205,0,0,1-.15,16.29q1.108.328,2.254.584a6.251,6.251,0,0,0,2.7,0c13.661-3.028,23.389-14.037,23.389-26.792V5.559a2.771,2.771,0,0,0-1.981-2.57C278.94,1.722,271.669,0,259.95,0S240.959,1.723,237.2,2.99A2.77,2.77,0,0,0,235.215,5.559Zm30.2,11.283a2.961,2.961,0,0,1,3.864,0,3.9,3.9,0,0,0,5.093,0,2.96,2.96,0,0,1,3.864,0,2.272,2.272,0,0,1,0,3.462,9.824,9.824,0,0,1-12.821,0A2.273,2.273,0,0,1,265.415,16.842Zm0,0" transform="translate(-193.176 0)"/><path class="a" d="M56.018,98.9l-11-21.008A2.933,2.933,0,0,0,42.2,76.422c-3.972.269-11.422,1.45-22.152,5.961C9.44,86.844,3.674,91.171.868,93.75A2.533,2.533,0,0,0,.292,96.83l10.941,20.9c6.045,11.546,20.072,17.811,33.875,15.352a5.9,5.9,0,0,0,2.434-1.024C58.474,124.116,62.064,110.446,56.018,98.9Zm-22.1-1.566c1.7-4.213,6.905-6.4,11.607-4.88a2.388,2.388,0,0,1,1.641,3.134,2.827,2.827,0,0,1-3.5,1.47A3.733,3.733,0,0,0,39.052,99a2.736,2.736,0,0,1-2.569,1.617,3.006,3.006,0,0,1-.929-.146A2.388,2.388,0,0,1,33.913,97.333ZM23.348,105.6a3.96,3.96,0,0,0-2.754.114,3.365,3.365,0,0,0-1.857,1.825,2.737,2.737,0,0,1-2.57,1.617,3.023,3.023,0,0,1-.928-.146,2.388,2.388,0,0,1-1.641-3.134,8.473,8.473,0,0,1,4.676-4.594,9.968,9.968,0,0,1,6.931-.286,2.388,2.388,0,0,1,1.641,3.134A2.829,2.829,0,0,1,23.348,105.6Zm9.173,16a18.84,18.84,0,0,1-5.809-.915,2.388,2.388,0,0,1-1.641-3.134,2.828,2.828,0,0,1,3.5-1.47c6.058,1.961,12.767-.86,14.956-6.287a2.828,2.828,0,0,1,3.5-1.471,2.389,2.389,0,0,1,1.641,3.135C46.143,117.706,39.541,121.6,32.521,121.6Zm0,0" transform="translate(-0.001 -64.176)"/></svg>